# xmcd
#
# Track frame offsets:
#	150
#	8959
#	18116
#	30882
#	42656
#	52437
#	61954
#	75698
#	85408
#	97848
#	112360
#
# Disc length: 1537 seconds
#
# Revision: 0
# Processed by: cddbd v1.4PL0 Copyright (c) Steve Scherf et al.
# Submitted via: dBpowerAMP V4.0
#
DISCID=8a05ff0b
DTITLE=The McKameys - An Acoustic Journey
DYEAR=2003
DGENRE=Gospel
TTITLE0=Anytime
TTITLE1=One of Those Days
TTITLE2=I've Prayed in the Dark Before
TTITLE3=Who I Am
TTITLE4=Foretaste of Heaven
TTITLE5=I Thank Thee For Them All
TTITLE6=God is so Good to Me
TTITLE7=Grace Will Much More Abound
TTITLE8=Grace was the Answer
TTITLE9=His Story
TTITLE10=(Reprise) God is So Good to Me (Acapella)
EXTD=
EXTT0=
EXTT1=
EXTT2=
EXTT3=
EXTT4=
EXTT5=
EXTT6=
EXTT7=
EXTT8=
EXTT9=
EXTT10=
PLAYORDER=
